<svg width="20" height="20" viewBox="0 0 20 20" fill="none" xmlns="http://www.w3.org/2000/svg">
<g clip-path="url(#clip0_863_2084)">
<path d="M19.8042 10.2312C19.8042 9.55141 19.7491 8.86797 19.6315 8.19922H10.1992V12.05H15.6007C15.3765 13.292 14.6563 14.3907 13.6018 15.0888V17.5874H16.8243C18.7166 15.8457 19.8042 13.2736 19.8042 10.2312Z" fill="#4285F4"/>
<path d="M10.2019 19.9998C12.8989 19.9998 15.1734 19.1143 16.8306 17.5857L13.6081 15.0871C12.7115 15.697 11.5541 16.0424 10.2056 16.0424C7.59669 16.0424 5.38468 14.2824 4.591 11.916H1.26562V14.4918C2.96322 17.8686 6.42087 19.9998 10.2019 19.9998Z" fill="#34A853"/>
<path d="M4.58467 11.9163C4.16578 10.6743 4.16578 9.32947 4.58467 8.0875V5.51172H1.26297C-0.155365 8.33737 -0.155365 11.6664 1.26297 14.4921L4.58467 11.9163Z" fill="#FBBC04"/>
<path d="M10.2019 3.95805C11.6276 3.936 13.0055 4.47247 14.038 5.45722L16.893 2.60218C15.0852 0.904587 12.6858 -0.0287217 10.2019 0.000673888C6.42087 0.000673888 2.96322 2.13185 1.26562 5.51234L4.58732 8.08813C5.37733 5.71811 7.59302 3.95805 10.2019 3.95805Z" fill="#EA4335"/>
</g>
<defs>
<clipPath id="clip0_863_2084">
<rect width="20" height="20" fill="white"/>
</clipPath>
</defs>
</svg>
