<svg width="16" height="16" viewBox="0 0 16 16" fill="none" xmlns="http://www.w3.org/2000/svg">
<path d="M9.99958 6.66615L7.33291 9.33281L5.99958 7.99948M8.83024 2.30548L9.64424 2.99881C9.84958 3.17348 10.1042 3.27881 10.3722 3.30081L11.4389 3.38615C11.7421 3.41035 12.0267 3.54173 12.2419 3.75673C12.457 3.97173 12.5885 4.25631 12.6129 4.55948L12.6976 5.62615C12.7196 5.89481 12.8256 6.15015 13.0002 6.35481L13.6936 7.16815C13.8912 7.39981 13.9997 7.69432 13.9997 7.99881C13.9997 8.3033 13.8912 8.59782 13.6936 8.82948L13.0002 9.64348C12.8256 9.84881 12.7196 10.1035 12.6982 10.3721L12.6129 11.4388C12.5887 11.742 12.4573 12.0266 12.2423 12.2418C12.0273 12.4569 11.7427 12.5884 11.4396 12.6128L10.3729 12.6981C10.1044 12.7194 9.84937 12.8249 9.64424 12.9995L8.83024 13.6928C8.59858 13.8904 8.30407 13.999 7.99958 13.999C7.69509 13.999 7.40057 13.8904 7.16891 13.6928L6.35558 12.9995C6.15027 12.8247 5.89502 12.7193 5.62624 12.6981L4.55958 12.6128C4.25631 12.5884 3.97164 12.4568 3.75663 12.2415C3.54161 12.0263 3.4103 11.7414 3.38624 11.4381L3.30091 10.3721C3.27932 10.1038 3.17364 9.84901 2.99891 9.64415L2.30558 8.82948C2.10833 8.59791 2 8.30367 2 7.99948C2 7.69529 2.10833 7.40105 2.30558 7.16948L2.99891 6.35481C3.17424 6.14948 3.27891 5.89481 3.30024 5.62615L3.38558 4.56015C3.40985 4.25665 3.54151 3.97174 3.75692 3.75658C3.97233 3.54141 4.25739 3.41007 4.56091 3.38615L5.62624 3.30148C5.89487 3.28003 6.14987 3.17434 6.35491 2.99948L7.16891 2.30615C7.40057 2.10854 7.69509 2 7.99958 2C8.30407 2 8.59858 2.10788 8.83024 2.30548Z" stroke="#1B1D6B" stroke-width="2" stroke-linecap="round" stroke-linejoin="round"/>
</svg>
