<svg width="36" height="36" viewBox="0 0 36 36" fill="none" xmlns="http://www.w3.org/2000/svg">
<g clip-path="url(#clip0_420_538)">
<path d="M16.875 4.49973C17.1734 4.49973 17.4595 4.61826 17.6705 4.82924C17.8815 5.04022 18 5.32636 18 5.62473C18 5.9231 17.8815 6.20925 17.6705 6.42023C17.4595 6.63121 17.1734 6.74973 16.875 6.74973H10.125C9.22989 6.74973 8.37145 7.10531 7.73851 7.73825C7.10558 8.37118 6.75 9.22963 6.75 10.1247V25.8747C6.75 26.7698 7.10558 27.6283 7.73851 28.2612C8.37145 28.8942 9.22989 29.2497 10.125 29.2497H25.875C26.7701 29.2497 27.6286 28.8942 28.2615 28.2612C28.8944 27.6283 29.25 26.7698 29.25 25.8747V21.3747C29.25 21.0764 29.3685 20.7902 29.5795 20.5792C29.7905 20.3683 30.0766 20.2497 30.375 20.2497C30.6734 20.2497 30.9595 20.3683 31.1705 20.5792C31.3815 20.7902 31.5 21.0764 31.5 21.3747V25.8747C31.5 27.3666 30.9074 28.7973 29.8525 29.8522C28.7976 30.9071 27.3668 31.4997 25.875 31.4997H10.125C8.63316 31.4997 7.20242 30.9071 6.14752 29.8522C5.09263 28.7973 4.5 27.3666 4.5 25.8747V10.1247C4.5 8.63289 5.09263 7.20215 6.14752 6.14726C7.20242 5.09236 8.63316 4.49973 10.125 4.49973H16.875ZM24.255 2.36223C24.4444 2.2697 24.656 2.23224 24.8656 2.25412C25.0753 2.276 25.2745 2.35634 25.4408 2.48598L35.5658 10.361C35.7013 10.4661 35.8109 10.6009 35.8863 10.7549C35.9618 10.909 36.001 11.0782 36.001 11.2497C36.001 11.4213 35.9618 11.5905 35.8863 11.7445C35.8109 11.8986 35.7013 12.0333 35.5658 12.1385L25.4408 20.0135C25.2745 20.1428 25.0752 20.2229 24.8656 20.2446C24.6561 20.2662 24.4446 20.2286 24.2554 20.136C24.0662 20.0433 23.9068 19.8995 23.7953 19.7207C23.6839 19.5419 23.6249 19.3354 23.625 19.1247V15.806C18.603 16.3235 15.471 20.2452 13.734 23.4537L13.3807 24.1287C13.2672 24.3552 13.0806 24.5367 12.8511 24.644C12.6216 24.7512 12.3626 24.7778 12.116 24.7194C11.8695 24.6611 11.6499 24.5213 11.4927 24.3226C11.3355 24.124 11.25 23.8781 11.25 23.6247C11.25 18.9537 12.4155 14.7575 14.7083 11.6997C16.8188 8.88723 19.8517 7.09398 23.625 6.79698V3.37473C23.6246 3.16388 23.6834 2.95716 23.7948 2.77814C23.9062 2.59912 24.0657 2.455 24.255 2.36223ZM25.875 7.87473C25.875 8.1731 25.7565 8.45925 25.5455 8.67023C25.3345 8.88121 25.0484 8.99973 24.75 8.99973C21.1725 8.99973 18.4117 10.514 16.5105 13.0497C15.3022 14.6607 14.4225 16.7082 13.9365 19.0797C16.2495 16.1952 19.7438 13.4997 24.75 13.4997C25.0484 13.4997 25.3345 13.6183 25.5455 13.8292C25.7565 14.0402 25.875 14.3264 25.875 14.6247V16.8252L33.0413 11.2497L25.875 5.67198V7.87473Z" fill="black"/>
</g>
<defs>
<clipPath id="clip0_420_538">
<rect width="36" height="36" fill="white"/>
</clipPath>
</defs>
</svg>
