<svg width="66" height="15" viewBox="0 0 66 15" fill="none" xmlns="http://www.w3.org/2000/svg">
<path d="M3.96787 10.2503L4.63954 7.37246L2.40625 5.43763L5.34804 5.18304L6.50017 2.46875L7.65229 5.1825L10.5935 5.43708L8.36025 7.37192L9.03246 10.2498L6.50017 8.72229L3.96787 10.2503Z" fill="black"/>
<path d="M16.9679 10.2503L17.6395 7.37246L15.4062 5.43763L18.348 5.18304L19.5002 2.46875L20.6523 5.1825L23.5935 5.43708L21.3602 7.37192L22.0325 10.2498L19.5002 8.72229L16.9679 10.2503Z" fill="black"/>
<path d="M29.9679 10.2503L30.6395 7.37246L28.4062 5.43763L31.348 5.18304L32.5002 2.46875L33.6523 5.1825L36.5935 5.43708L34.3602 7.37192L35.0325 10.2498L32.5002 8.72229L29.9679 10.2503Z" fill="black"/>
<path d="M42.9679 10.2503L43.6395 7.37246L41.4062 5.43763L44.348 5.18304L45.5002 2.46875L46.6523 5.1825L49.5935 5.43708L47.3602 7.37192L48.0325 10.2498L45.5002 8.72229L42.9679 10.2503Z" fill="black"/>
<path d="M55.9679 10.2503L56.6395 7.37246L54.4062 5.43763L57.348 5.18304L58.5002 2.46875L59.6523 5.1825L62.5935 5.43708L60.3602 7.37192L61.0325 10.2498L58.5002 8.72229L55.9679 10.2503Z" fill="black"/>
</svg>
