<svg width="36" height="36" viewBox="0 0 36 36" fill="none" xmlns="http://www.w3.org/2000/svg">
<g clip-path="url(#paint0_angular_759_2223_clip_path)" data-figma-skip-parse="true"><g transform="matrix(-0.00512577 -0.0146471 0.0146478 -0.00512603 17.5775 17.5767)"><foreignObject x="-1262.81" y="-1262.81" width="2525.63" height="2525.63"><div xmlns="http://www.w3.org/1999/xhtml" style="background:conic-gradient(from 90deg,rgba(255, 255, 255, 1) 0deg,rgba(48, 63, 159, 0) 360deg);height:100%;width:100%;opacity:1"></div></foreignObject></g></g><path d="M17.5782 32.2238C19.1961 32.2238 20.5076 30.9123 20.5076 29.2944C20.5076 27.6765 19.1961 26.365 17.5782 26.365C15.9603 26.365 14.6488 27.6765 14.6488 29.2944C14.6488 30.9123 15.9603 32.2238 17.5782 32.2238Z" data-figma-gradient-fill="{&#34;type&#34;:&#34;GRADIENT_ANGULAR&#34;,&#34;stops&#34;:[{&#34;color&#34;:{&#34;r&#34;:1.0,&#34;g&#34;:1.0,&#34;b&#34;:1.0,&#34;a&#34;:1.0},&#34;position&#34;:0.0},{&#34;color&#34;:{&#34;r&#34;:0.18823529779911041,&#34;g&#34;:0.24705882370471954,&#34;b&#34;:0.62352943420410156,&#34;a&#34;:0.0},&#34;position&#34;:1.0}],&#34;stopsVar&#34;:[{&#34;color&#34;:{&#34;r&#34;:1.0,&#34;g&#34;:1.0,&#34;b&#34;:1.0,&#34;a&#34;:1.0},&#34;position&#34;:0.0},{&#34;color&#34;:{&#34;r&#34;:0.18823529779911041,&#34;g&#34;:0.24705882370471954,&#34;b&#34;:0.62352943420410156,&#34;a&#34;:0.0},&#34;position&#34;:1.0}],&#34;transform&#34;:{&#34;m00&#34;:-10.251543998718262,&#34;m01&#34;:29.295579910278320,&#34;m02&#34;:8.0554599761962891,&#34;m10&#34;:-29.294115066528320,&#34;m11&#34;:-10.252056121826172,&#34;m12&#34;:37.349830627441406},&#34;opacity&#34;:1.0,&#34;blendMode&#34;:&#34;NORMAL&#34;,&#34;visible&#34;:true}"/>
<g clip-path="url(#paint1_angular_759_2223_clip_path)" data-figma-skip-parse="true"><g transform="matrix(-0.00512577 -0.0146471 0.0146478 -0.00512603 17.5775 17.5767)"><foreignObject x="-1262.81" y="-1262.81" width="2525.63" height="2525.63"><div xmlns="http://www.w3.org/1999/xhtml" style="background:conic-gradient(from 90deg,rgba(255, 255, 255, 1) 0deg,rgba(48, 63, 159, 0) 360deg);height:100%;width:100%;opacity:1"></div></foreignObject></g></g><path d="M17.5782 8.78851C19.1961 8.78851 20.5076 7.47697 20.5076 5.8591C20.5076 4.24123 19.1961 2.92969 17.5782 2.92969C15.9603 2.92969 14.6488 4.24123 14.6488 5.8591C14.6488 7.47697 15.9603 8.78851 17.5782 8.78851Z" data-figma-gradient-fill="{&#34;type&#34;:&#34;GRADIENT_ANGULAR&#34;,&#34;stops&#34;:[{&#34;color&#34;:{&#34;r&#34;:1.0,&#34;g&#34;:1.0,&#34;b&#34;:1.0,&#34;a&#34;:1.0},&#34;position&#34;:0.0},{&#34;color&#34;:{&#34;r&#34;:0.18823529779911041,&#34;g&#34;:0.24705882370471954,&#34;b&#34;:0.62352943420410156,&#34;a&#34;:0.0},&#34;position&#34;:1.0}],&#34;stopsVar&#34;:[{&#34;color&#34;:{&#34;r&#34;:1.0,&#34;g&#34;:1.0,&#34;b&#34;:1.0,&#34;a&#34;:1.0},&#34;position&#34;:0.0},{&#34;color&#34;:{&#34;r&#34;:0.18823529779911041,&#34;g&#34;:0.24705882370471954,&#34;b&#34;:0.62352943420410156,&#34;a&#34;:0.0},&#34;position&#34;:1.0}],&#34;transform&#34;:{&#34;m00&#34;:-10.251543998718262,&#34;m01&#34;:29.295579910278320,&#34;m02&#34;:8.0554599761962891,&#34;m10&#34;:-29.294115066528320,&#34;m11&#34;:-10.252056121826172,&#34;m12&#34;:37.349830627441406},&#34;opacity&#34;:1.0,&#34;blendMode&#34;:&#34;NORMAL&#34;,&#34;visible&#34;:true}"/>
<g clip-path="url(#paint2_angular_759_2223_clip_path)" data-figma-skip-parse="true"><g transform="matrix(-0.00512577 -0.0146471 0.0146478 -0.00512603 17.5775 17.5767)"><foreignObject x="-1262.81" y="-1262.81" width="2525.63" height="2525.63"><div xmlns="http://www.w3.org/1999/xhtml" style="background:conic-gradient(from 90deg,rgba(255, 255, 255, 1) 0deg,rgba(48, 63, 159, 0) 360deg);height:100%;width:100%;opacity:1"></div></foreignObject></g></g><path d="M9.29237 28.792C10.9102 28.792 12.2218 27.4805 12.2218 25.8626C12.2218 24.2447 10.9102 22.9332 9.29237 22.9332C7.6745 22.9332 6.36296 24.2447 6.36296 25.8626C6.36296 27.4805 7.6745 28.792 9.29237 28.792Z" data-figma-gradient-fill="{&#34;type&#34;:&#34;GRADIENT_ANGULAR&#34;,&#34;stops&#34;:[{&#34;color&#34;:{&#34;r&#34;:1.0,&#34;g&#34;:1.0,&#34;b&#34;:1.0,&#34;a&#34;:1.0},&#34;position&#34;:0.0},{&#34;color&#34;:{&#34;r&#34;:0.18823529779911041,&#34;g&#34;:0.24705882370471954,&#34;b&#34;:0.62352943420410156,&#34;a&#34;:0.0},&#34;position&#34;:1.0}],&#34;stopsVar&#34;:[{&#34;color&#34;:{&#34;r&#34;:1.0,&#34;g&#34;:1.0,&#34;b&#34;:1.0,&#34;a&#34;:1.0},&#34;position&#34;:0.0},{&#34;color&#34;:{&#34;r&#34;:0.18823529779911041,&#34;g&#34;:0.24705882370471954,&#34;b&#34;:0.62352943420410156,&#34;a&#34;:0.0},&#34;position&#34;:1.0}],&#34;transform&#34;:{&#34;m00&#34;:-10.251543998718262,&#34;m01&#34;:29.295579910278320,&#34;m02&#34;:8.0554599761962891,&#34;m10&#34;:-29.294115066528320,&#34;m11&#34;:-10.252056121826172,&#34;m12&#34;:37.349830627441406},&#34;opacity&#34;:1.0,&#34;blendMode&#34;:&#34;NORMAL&#34;,&#34;visible&#34;:true}"/>
<g clip-path="url(#paint3_angular_759_2223_clip_path)" data-figma-skip-parse="true"><g transform="matrix(-0.00512577 -0.0146471 0.0146478 -0.00512603 17.5775 17.5767)"><foreignObject x="-1262.81" y="-1262.81" width="2525.63" height="2525.63"><div xmlns="http://www.w3.org/1999/xhtml" style="background:conic-gradient(from 90deg,rgba(255, 255, 255, 1) 0deg,rgba(48, 63, 159, 0) 360deg);height:100%;width:100%;opacity:1"></div></foreignObject></g></g><path d="M25.8641 12.2203C27.4819 12.2203 28.7935 10.9088 28.7935 9.2909C28.7935 7.67304 27.4819 6.36149 25.8641 6.36149C24.2462 6.36149 22.9346 7.67304 22.9346 9.2909C22.9346 10.9088 24.2462 12.2203 25.8641 12.2203Z" data-figma-gradient-fill="{&#34;type&#34;:&#34;GRADIENT_ANGULAR&#34;,&#34;stops&#34;:[{&#34;color&#34;:{&#34;r&#34;:1.0,&#34;g&#34;:1.0,&#34;b&#34;:1.0,&#34;a&#34;:1.0},&#34;position&#34;:0.0},{&#34;color&#34;:{&#34;r&#34;:0.18823529779911041,&#34;g&#34;:0.24705882370471954,&#34;b&#34;:0.62352943420410156,&#34;a&#34;:0.0},&#34;position&#34;:1.0}],&#34;stopsVar&#34;:[{&#34;color&#34;:{&#34;r&#34;:1.0,&#34;g&#34;:1.0,&#34;b&#34;:1.0,&#34;a&#34;:1.0},&#34;position&#34;:0.0},{&#34;color&#34;:{&#34;r&#34;:0.18823529779911041,&#34;g&#34;:0.24705882370471954,&#34;b&#34;:0.62352943420410156,&#34;a&#34;:0.0},&#34;position&#34;:1.0}],&#34;transform&#34;:{&#34;m00&#34;:-10.251543998718262,&#34;m01&#34;:29.295579910278320,&#34;m02&#34;:8.0554599761962891,&#34;m10&#34;:-29.294115066528320,&#34;m11&#34;:-10.252056121826172,&#34;m12&#34;:37.349830627441406},&#34;opacity&#34;:1.0,&#34;blendMode&#34;:&#34;NORMAL&#34;,&#34;visible&#34;:true}"/>
<g clip-path="url(#paint4_angular_759_2223_clip_path)" data-figma-skip-parse="true"><g transform="matrix(-0.00512577 -0.0146471 0.0146478 -0.00512603 17.5775 17.5767)"><foreignObject x="-1262.81" y="-1262.81" width="2525.63" height="2525.63"><div xmlns="http://www.w3.org/1999/xhtml" style="background:conic-gradient(from 90deg,rgba(255, 255, 255, 1) 0deg,rgba(48, 63, 159, 0) 360deg);height:100%;width:100%;opacity:1"></div></foreignObject></g></g><path d="M5.86056 20.5076C7.47924 20.5076 8.79144 19.1954 8.79144 17.5767C8.79144 15.9581 7.47924 14.6459 5.86056 14.6459C4.24189 14.6459 2.92969 15.9581 2.92969 17.5767C2.92969 19.1954 4.24189 20.5076 5.86056 20.5076Z" data-figma-gradient-fill="{&#34;type&#34;:&#34;GRADIENT_ANGULAR&#34;,&#34;stops&#34;:[{&#34;color&#34;:{&#34;r&#34;:1.0,&#34;g&#34;:1.0,&#34;b&#34;:1.0,&#34;a&#34;:1.0},&#34;position&#34;:0.0},{&#34;color&#34;:{&#34;r&#34;:0.18823529779911041,&#34;g&#34;:0.24705882370471954,&#34;b&#34;:0.62352943420410156,&#34;a&#34;:0.0},&#34;position&#34;:1.0}],&#34;stopsVar&#34;:[{&#34;color&#34;:{&#34;r&#34;:1.0,&#34;g&#34;:1.0,&#34;b&#34;:1.0,&#34;a&#34;:1.0},&#34;position&#34;:0.0},{&#34;color&#34;:{&#34;r&#34;:0.18823529779911041,&#34;g&#34;:0.24705882370471954,&#34;b&#34;:0.62352943420410156,&#34;a&#34;:0.0},&#34;position&#34;:1.0}],&#34;transform&#34;:{&#34;m00&#34;:-10.251543998718262,&#34;m01&#34;:29.295579910278320,&#34;m02&#34;:8.0554599761962891,&#34;m10&#34;:-29.294115066528320,&#34;m11&#34;:-10.252056121826172,&#34;m12&#34;:37.349830627441406},&#34;opacity&#34;:1.0,&#34;blendMode&#34;:&#34;NORMAL&#34;,&#34;visible&#34;:true}"/>
<g clip-path="url(#paint5_angular_759_2223_clip_path)" data-figma-skip-parse="true"><g transform="matrix(-0.00512577 -0.0146471 0.0146478 -0.00512603 17.5775 17.5767)"><foreignObject x="-1262.81" y="-1262.81" width="2525.63" height="2525.63"><div xmlns="http://www.w3.org/1999/xhtml" style="background:conic-gradient(from 90deg,rgba(255, 255, 255, 1) 0deg,rgba(48, 63, 159, 0) 360deg);height:100%;width:100%;opacity:1"></div></foreignObject></g></g><path d="M29.2959 20.5062C30.9137 20.5062 32.2253 19.1946 32.2253 17.5767C32.2253 15.9589 30.9137 14.6473 29.2959 14.6473C27.678 14.6473 26.3664 15.9589 26.3664 17.5767C26.3664 19.1946 27.678 20.5062 29.2959 20.5062Z" data-figma-gradient-fill="{&#34;type&#34;:&#34;GRADIENT_ANGULAR&#34;,&#34;stops&#34;:[{&#34;color&#34;:{&#34;r&#34;:1.0,&#34;g&#34;:1.0,&#34;b&#34;:1.0,&#34;a&#34;:1.0},&#34;position&#34;:0.0},{&#34;color&#34;:{&#34;r&#34;:0.18823529779911041,&#34;g&#34;:0.24705882370471954,&#34;b&#34;:0.62352943420410156,&#34;a&#34;:0.0},&#34;position&#34;:1.0}],&#34;stopsVar&#34;:[{&#34;color&#34;:{&#34;r&#34;:1.0,&#34;g&#34;:1.0,&#34;b&#34;:1.0,&#34;a&#34;:1.0},&#34;position&#34;:0.0},{&#34;color&#34;:{&#34;r&#34;:0.18823529779911041,&#34;g&#34;:0.24705882370471954,&#34;b&#34;:0.62352943420410156,&#34;a&#34;:0.0},&#34;position&#34;:1.0}],&#34;transform&#34;:{&#34;m00&#34;:-10.251543998718262,&#34;m01&#34;:29.295579910278320,&#34;m02&#34;:8.0554599761962891,&#34;m10&#34;:-29.294115066528320,&#34;m11&#34;:-10.252056121826172,&#34;m12&#34;:37.349830627441406},&#34;opacity&#34;:1.0,&#34;blendMode&#34;:&#34;NORMAL&#34;,&#34;visible&#34;:true}"/>
<g clip-path="url(#paint6_angular_759_2223_clip_path)" data-figma-skip-parse="true"><g transform="matrix(-0.00512577 -0.0146471 0.0146478 -0.00512603 17.5775 17.5767)"><foreignObject x="-1262.81" y="-1262.81" width="2525.63" height="2525.63"><div xmlns="http://www.w3.org/1999/xhtml" style="background:conic-gradient(from 90deg,rgba(255, 255, 255, 1) 0deg,rgba(48, 63, 159, 0) 360deg);height:100%;width:100%;opacity:1"></div></foreignObject></g></g><path d="M9.29237 12.2218C10.9102 12.2218 12.2218 10.9102 12.2218 9.29237C12.2218 7.6745 10.9102 6.36296 9.29237 6.36296C7.6745 6.36296 6.36296 7.6745 6.36296 9.29237C6.36296 10.9102 7.6745 12.2218 9.29237 12.2218Z" data-figma-gradient-fill="{&#34;type&#34;:&#34;GRADIENT_ANGULAR&#34;,&#34;stops&#34;:[{&#34;color&#34;:{&#34;r&#34;:1.0,&#34;g&#34;:1.0,&#34;b&#34;:1.0,&#34;a&#34;:1.0},&#34;position&#34;:0.0},{&#34;color&#34;:{&#34;r&#34;:0.18823529779911041,&#34;g&#34;:0.24705882370471954,&#34;b&#34;:0.62352943420410156,&#34;a&#34;:0.0},&#34;position&#34;:1.0}],&#34;stopsVar&#34;:[{&#34;color&#34;:{&#34;r&#34;:1.0,&#34;g&#34;:1.0,&#34;b&#34;:1.0,&#34;a&#34;:1.0},&#34;position&#34;:0.0},{&#34;color&#34;:{&#34;r&#34;:0.18823529779911041,&#34;g&#34;:0.24705882370471954,&#34;b&#34;:0.62352943420410156,&#34;a&#34;:0.0},&#34;position&#34;:1.0}],&#34;transform&#34;:{&#34;m00&#34;:-10.251543998718262,&#34;m01&#34;:29.295579910278320,&#34;m02&#34;:8.0554599761962891,&#34;m10&#34;:-29.294115066528320,&#34;m11&#34;:-10.252056121826172,&#34;m12&#34;:37.349830627441406},&#34;opacity&#34;:1.0,&#34;blendMode&#34;:&#34;NORMAL&#34;,&#34;visible&#34;:true}"/>
<g clip-path="url(#paint7_angular_759_2223_clip_path)" data-figma-skip-parse="true"><g transform="matrix(-0.00512577 -0.0146471 0.0146478 -0.00512603 17.5775 17.5767)"><foreignObject x="-1262.81" y="-1262.81" width="2525.63" height="2525.63"><div xmlns="http://www.w3.org/1999/xhtml" style="background:conic-gradient(from 90deg,rgba(255, 255, 255, 1) 0deg,rgba(48, 63, 159, 0) 360deg);height:100%;width:100%;opacity:1"></div></foreignObject></g></g><path d="M25.8641 28.7935C27.4819 28.7935 28.7935 27.4819 28.7935 25.864C28.7935 24.2462 27.4819 22.9346 25.8641 22.9346C24.2462 22.9346 22.9346 24.2462 22.9346 25.864C22.9346 27.4819 24.2462 28.7935 25.8641 28.7935Z" data-figma-gradient-fill="{&#34;type&#34;:&#34;GRADIENT_ANGULAR&#34;,&#34;stops&#34;:[{&#34;color&#34;:{&#34;r&#34;:1.0,&#34;g&#34;:1.0,&#34;b&#34;:1.0,&#34;a&#34;:1.0},&#34;position&#34;:0.0},{&#34;color&#34;:{&#34;r&#34;:0.18823529779911041,&#34;g&#34;:0.24705882370471954,&#34;b&#34;:0.62352943420410156,&#34;a&#34;:0.0},&#34;position&#34;:1.0}],&#34;stopsVar&#34;:[{&#34;color&#34;:{&#34;r&#34;:1.0,&#34;g&#34;:1.0,&#34;b&#34;:1.0,&#34;a&#34;:1.0},&#34;position&#34;:0.0},{&#34;color&#34;:{&#34;r&#34;:0.18823529779911041,&#34;g&#34;:0.24705882370471954,&#34;b&#34;:0.62352943420410156,&#34;a&#34;:0.0},&#34;position&#34;:1.0}],&#34;transform&#34;:{&#34;m00&#34;:-10.251543998718262,&#34;m01&#34;:29.295579910278320,&#34;m02&#34;:8.0554599761962891,&#34;m10&#34;:-29.294115066528320,&#34;m11&#34;:-10.252056121826172,&#34;m12&#34;:37.349830627441406},&#34;opacity&#34;:1.0,&#34;blendMode&#34;:&#34;NORMAL&#34;,&#34;visible&#34;:true}"/>
<defs>
<clipPath id="paint0_angular_759_2223_clip_path"><path d="M17.5782 32.2238C19.1961 32.2238 20.5076 30.9123 20.5076 29.2944C20.5076 27.6765 19.1961 26.365 17.5782 26.365C15.9603 26.365 14.6488 27.6765 14.6488 29.2944C14.6488 30.9123 15.9603 32.2238 17.5782 32.2238Z"/></clipPath><clipPath id="paint1_angular_759_2223_clip_path"><path d="M17.5782 8.78851C19.1961 8.78851 20.5076 7.47697 20.5076 5.8591C20.5076 4.24123 19.1961 2.92969 17.5782 2.92969C15.9603 2.92969 14.6488 4.24123 14.6488 5.8591C14.6488 7.47697 15.9603 8.78851 17.5782 8.78851Z"/></clipPath><clipPath id="paint2_angular_759_2223_clip_path"><path d="M9.29237 28.792C10.9102 28.792 12.2218 27.4805 12.2218 25.8626C12.2218 24.2447 10.9102 22.9332 9.29237 22.9332C7.6745 22.9332 6.36296 24.2447 6.36296 25.8626C6.36296 27.4805 7.6745 28.792 9.29237 28.792Z"/></clipPath><clipPath id="paint3_angular_759_2223_clip_path"><path d="M25.8641 12.2203C27.4819 12.2203 28.7935 10.9088 28.7935 9.2909C28.7935 7.67304 27.4819 6.36149 25.8641 6.36149C24.2462 6.36149 22.9346 7.67304 22.9346 9.2909C22.9346 10.9088 24.2462 12.2203 25.8641 12.2203Z"/></clipPath><clipPath id="paint4_angular_759_2223_clip_path"><path d="M5.86056 20.5076C7.47924 20.5076 8.79144 19.1954 8.79144 17.5767C8.79144 15.9581 7.47924 14.6459 5.86056 14.6459C4.24189 14.6459 2.92969 15.9581 2.92969 17.5767C2.92969 19.1954 4.24189 20.5076 5.86056 20.5076Z"/></clipPath><clipPath id="paint5_angular_759_2223_clip_path"><path d="M29.2959 20.5062C30.9137 20.5062 32.2253 19.1946 32.2253 17.5767C32.2253 15.9589 30.9137 14.6473 29.2959 14.6473C27.678 14.6473 26.3664 15.9589 26.3664 17.5767C26.3664 19.1946 27.678 20.5062 29.2959 20.5062Z"/></clipPath><clipPath id="paint6_angular_759_2223_clip_path"><path d="M9.29237 12.2218C10.9102 12.2218 12.2218 10.9102 12.2218 9.29237C12.2218 7.6745 10.9102 6.36296 9.29237 6.36296C7.6745 6.36296 6.36296 7.6745 6.36296 9.29237C6.36296 10.9102 7.6745 12.2218 9.29237 12.2218Z"/></clipPath><clipPath id="paint7_angular_759_2223_clip_path"><path d="M25.8641 28.7935C27.4819 28.7935 28.7935 27.4819 28.7935 25.864C28.7935 24.2462 27.4819 22.9346 25.8641 22.9346C24.2462 22.9346 22.9346 24.2462 22.9346 25.864C22.9346 27.4819 24.2462 28.7935 25.8641 28.7935Z"/></clipPath></defs>
</svg>
