<svg width="53" height="54" viewBox="0 0 53 54" fill="none" xmlns="http://www.w3.org/2000/svg">
<path d="M26.5012 46.9839C37.4786 46.9839 46.3775 37.969 46.3775 26.8484C46.3775 15.7279 37.4786 6.71289 26.5012 6.71289C15.5239 6.71289 6.625 15.7279 6.625 26.8484C6.625 37.969 15.5239 46.9839 26.5012 46.9839Z" stroke="white" stroke-width="1.46471" stroke-linecap="round" stroke-linejoin="round"/>
<path d="M26.5041 40.2702C27.8762 40.2702 28.9886 39.1433 28.9886 37.7533C28.9886 36.3632 27.8762 35.2363 26.5041 35.2363C25.1319 35.2363 24.0195 36.3632 24.0195 37.7533C24.0195 39.1433 25.1319 40.2702 26.5041 40.2702Z" fill="white"/>
<path d="M26.5004 30.203V28.525C27.6469 28.525 28.7678 28.1806 29.7211 27.5353C30.6745 26.8899 31.4175 25.9727 31.8563 24.8996C32.2951 23.8265 32.4099 22.6456 32.1862 21.5064C31.9625 20.3672 31.4104 19.3208 30.5996 18.4994C29.7889 17.6781 28.7559 17.1188 27.6313 16.8921C26.5068 16.6655 25.3412 16.7818 24.2819 17.2263C23.2225 17.6708 22.3171 18.4236 21.6801 19.3894C21.0431 20.3552 20.7031 21.4906 20.7031 22.6522" stroke="white" stroke-width="1.46471" stroke-linecap="round" stroke-linejoin="round"/>
</svg>
