<svg width="12" height="12" viewBox="0 0 12 12" fill="none" xmlns="http://www.w3.org/2000/svg">
<path d="M8.7391 3.25995C8.85792 3.11613 9.02819 3.02437 9.21365 3.0042C9.39912 2.98403 9.58513 3.03704 9.7321 3.15195C9.80427 3.20785 9.86451 3.27764 9.90925 3.35721C9.95398 3.43678 9.98232 3.52452 9.99257 3.61522C10.0028 3.70593 9.99479 3.79777 9.96895 3.88533C9.9431 3.97288 9.89997 4.05436 9.8421 4.12495L6.0821 8.74495C6.01917 8.82129 5.94109 8.88374 5.85279 8.92834C5.76449 8.97295 5.66789 8.99875 5.56911 9.00411C5.47032 9.00946 5.3715 8.99426 5.2789 8.95947C5.18629 8.92467 5.10191 8.87104 5.0311 8.80195L2.2111 6.03195L2.1621 5.97995C1.9361 5.70795 1.9521 5.30695 2.2111 5.05295C2.4701 4.79895 2.8791 4.78295 3.1561 5.00495L3.2091 5.05295L5.4791 7.27295L8.7491 3.26295L8.7391 3.25995Z" fill="black"/>
</svg>
