<svg width="70" height="70" viewBox="0 0 70 70" fill="none" xmlns="http://www.w3.org/2000/svg">
<path fill-rule="evenodd" clip-rule="evenodd" d="M34.9987 5.83398C31.6228 5.83329 28.3188 6.80903 25.485 8.64359C22.6511 10.4782 20.4083 13.0932 19.027 16.1736C18.8305 16.6152 18.6293 17.0546 18.4233 17.4919L18.3649 17.4948C18.1783 17.5007 17.9245 17.5007 17.4987 17.5007C14.4045 17.5007 11.437 18.7298 9.24912 20.9177C7.06119 23.1057 5.83203 26.0731 5.83203 29.1673C5.83203 32.2615 7.06119 35.229 9.24912 37.4169C11.437 39.6048 14.4045 40.834 17.4987 40.834H18.0004L23.8337 35.0007H17.4987C15.9516 35.0007 14.4679 34.3861 13.3739 33.2921C12.2799 32.1981 11.6654 30.7144 11.6654 29.1673C11.6654 27.6202 12.2799 26.1365 13.3739 25.0425C14.4679 23.9486 15.9516 23.334 17.4987 23.334H17.6854C18.292 23.334 18.9979 23.3369 19.5812 23.2173C20.3073 23.0931 21.0014 22.8254 21.6229 22.4298C22.3258 21.9748 22.8099 21.409 23.1774 20.8927C23.4026 20.5602 23.5988 20.2089 23.7637 19.8427C23.9193 19.518 24.1098 19.1019 24.3354 18.5944L24.347 18.5652C25.267 16.5094 26.7622 14.7638 28.6523 13.5389C30.5423 12.3141 32.7465 11.6623 34.9987 11.6623C37.2509 11.6623 39.4551 12.3141 41.3451 13.5389C43.2352 14.7638 44.7304 16.5094 45.6504 18.5652L45.6649 18.5944C45.8886 19.1 46.0781 19.5161 46.2337 19.8427C46.3679 20.1257 46.5662 20.5369 46.8199 20.8927C47.1874 21.4061 47.6687 21.9748 48.3745 22.4327C49.0804 22.8877 49.7949 23.0948 50.4162 23.2202C50.9995 23.3369 51.7054 23.3369 52.312 23.3369L52.4987 23.334C54.0458 23.334 55.5295 23.9486 56.6235 25.0425C57.7174 26.1365 58.332 27.6202 58.332 29.1673C58.332 30.7144 57.7174 32.1981 56.6235 33.2921C55.5295 34.3861 54.0458 35.0007 52.4987 35.0007H46.1637L51.997 40.834H52.4987C55.5929 40.834 58.5603 39.6048 60.7483 37.4169C62.9362 35.229 64.1654 32.2615 64.1654 29.1673C64.1654 26.0731 62.9362 23.1057 60.7483 20.9177C58.5603 18.7298 55.5929 17.5007 52.4987 17.5007C52.0729 17.5007 51.8191 17.5007 51.6324 17.4948H51.5741L51.5012 17.3402C51.3207 16.953 51.1437 16.5641 50.9704 16.1736C49.5891 13.0932 47.3463 10.4782 44.5124 8.64359C41.6786 6.80903 38.3746 5.83329 34.9987 5.83398Z" fill="white"/>
<path d="M34.9983 34.9992L32.9362 32.9371L34.9983 30.875L37.0604 32.9371L34.9983 34.9992ZM37.9149 61.2492C37.9149 62.0227 37.6077 62.7646 37.0607 63.3116C36.5137 63.8585 35.7718 64.1658 34.9983 64.1658C34.2247 64.1658 33.4829 63.8585 32.9359 63.3116C32.3889 62.7646 32.0816 62.0227 32.0816 61.2492H37.9149ZM21.2695 44.6037L32.9362 32.9371L37.0604 37.0612L25.3937 48.7279L21.2695 44.6037ZM37.0604 32.9371L48.727 44.6037L44.6029 48.7279L32.9362 37.0612L37.0604 32.9371ZM37.9149 34.9992V61.2492H32.0816V34.9992H37.9149Z" fill="white"/>
</svg>
