<svg width="22" height="24" viewBox="0 0 22 24" fill="none" xmlns="http://www.w3.org/2000/svg">
<path d="M0 21.2571V8.91428C0 8.48 0.0976247 8.06857 0.292875 7.68C0.488125 7.29143 0.757167 6.97143 1.1 6.72L9.35 0.548571C9.83125 0.182857 10.3812 0 11 0C11.6187 0 12.1687 0.182857 12.65 0.548571L20.9 6.72C21.2437 6.97143 21.5132 7.29143 21.7085 7.68C21.9037 8.06857 22.0009 8.48 22 8.91428V21.2571C22 22.0114 21.7305 22.6574 21.1915 23.195C20.6525 23.7326 20.0053 24.0009 19.25 24H15.125C14.7354 24 14.4091 23.8683 14.146 23.605C13.8829 23.3417 13.7509 23.0162 13.75 22.6286V15.7714C13.75 15.3829 13.618 15.0574 13.354 14.795C13.09 14.5326 12.7637 14.4009 12.375 14.4H9.625C9.23541 14.4 8.90908 14.5317 8.646 14.795C8.38291 15.0583 8.25091 15.3838 8.25 15.7714V22.6286C8.25 23.0171 8.118 23.3431 7.854 23.6064C7.59 23.8697 7.26366 24.0009 6.875 24H2.75C1.99375 24 1.34658 23.7317 0.8085 23.195C0.270416 22.6583 0.000916666 22.0123 0 21.2571Z" fill="white"/>
</svg>
