<svg width="24" height="20" viewBox="0 0 24 20" fill="none" xmlns="http://www.w3.org/2000/svg">
<path d="M17.6162 0C18.8586 0 19.8122 1.02364 20.5188 2.125L20.758 2.51479L20.9771 2.90336C21.0467 3.03045 21.1134 3.15512 21.177 3.27736C22.0611 4.98586 22.8305 7.2165 23.3394 9.42043C23.8448 11.6074 24.1245 13.8914 23.9459 15.6874C23.7662 17.4906 22.9069 19.4286 20.9861 19.4286C19.263 19.4286 17.9049 18.4329 16.8018 17.4602L15.555 16.3297C14.5182 15.4117 13.3837 14.5714 11.9998 14.5714C10.6159 14.5714 9.48025 15.4117 8.4457 16.3297L7.19885 17.459C6.09354 18.4329 4.73549 19.4286 3.01349 19.4286C1.09154 19.4286 0.232229 17.4906 0.0536269 15.6874C-0.123852 13.8902 0.154723 11.6074 0.660202 9.42043C1.16905 7.2165 1.9385 4.98586 2.82253 3.27736L3.02247 2.90214L3.24151 2.51479L3.48077 2.125C4.18732 1.02364 5.14099 0 6.38335 0C6.95622 0 7.52573 0.150571 8.08513 0.327857L8.75124 0.548857C8.86132 0.585286 8.97065 0.620095 9.07924 0.653286C10.0509 0.954429 11.045 1.21429 11.9998 1.21429C12.9546 1.21429 13.9487 0.954429 14.9203 0.653286L15.9144 0.329071C16.4738 0.150571 17.0433 0 17.6162 0ZM8.06828 4.85714C7.32349 4.85714 6.60921 5.17698 6.08257 5.74628C5.55593 6.31559 5.26006 7.08774 5.26006 7.89286C5.26006 8.69798 5.55593 9.47012 6.08257 10.0394C6.60921 10.6087 7.32349 10.9286 8.06828 10.9286C8.81306 10.9286 9.52734 10.6087 10.054 10.0394C10.5806 9.47012 10.8765 8.69798 10.8765 7.89286C10.8765 7.08774 10.5806 6.31559 10.054 5.74628C9.52734 5.17698 8.81306 4.85714 8.06828 4.85714ZM15.9313 4.85714C15.6334 4.85714 15.3477 4.98508 15.137 5.2128C14.9263 5.44052 14.808 5.74938 14.808 6.07143V6.67857H14.2464C13.9484 6.67857 13.6627 6.80651 13.4521 7.03423C13.2414 7.26195 13.1231 7.57081 13.1231 7.89286C13.1231 8.21491 13.2414 8.52376 13.4521 8.75149C13.6627 8.97921 13.9484 9.10714 14.2464 9.10714H14.808V9.71429C14.808 10.0363 14.9263 10.3452 15.137 10.5729C15.3477 10.8006 15.6334 10.9286 15.9313 10.9286C16.2292 10.9286 16.5149 10.8006 16.7256 10.5729C16.9362 10.3452 17.0546 10.0363 17.0546 9.71429V9.10714H17.6162C17.9141 9.10714 18.1998 8.97921 18.4105 8.75149C18.6212 8.52376 18.7395 8.21491 18.7395 7.89286C18.7395 7.57081 18.6212 7.26195 18.4105 7.03423C18.1998 6.80651 17.9141 6.67857 17.6162 6.67857H17.0546V6.07143C17.0546 5.74938 16.9362 5.44052 16.7256 5.2128C16.5149 4.98508 16.2292 4.85714 15.9313 4.85714ZM8.06828 7.28571C8.21723 7.28571 8.36009 7.34968 8.46542 7.46354C8.57075 7.5774 8.62992 7.73183 8.62992 7.89286C8.62992 8.05388 8.57075 8.20831 8.46542 8.32217C8.36009 8.43603 8.21723 8.5 8.06828 8.5C7.91932 8.5 7.77646 8.43603 7.67114 8.32217C7.56581 8.20831 7.50663 8.05388 7.50663 7.89286C7.50663 7.73183 7.56581 7.5774 7.67114 7.46354C7.77646 7.34968 7.91932 7.28571 8.06828 7.28571Z" fill="white"/>
</svg>
