<svg width="24" height="24" viewBox="0 0 24 24" fill="none" xmlns="http://www.w3.org/2000/svg">
<path d="M19.5898 0.878116C19.0283 0.31583 18.2672 0 17.4737 0C16.6802 0 15.9191 0.31583 15.3576 0.878116L11.906 4.33109C11.7584 3.66414 11.3883 3.06761 10.857 2.63999C10.3256 2.21237 9.66473 1.97923 8.9834 1.97906H2.99447C2.20028 1.97906 1.43863 2.2954 0.877059 2.8585C0.315487 3.42159 0 4.18531 0 4.98164V20.9954C0 22.0163 0.509059 22.9171 1.28562 23.4595C1.77073 23.7998 2.36363 24 3.00045 24H18.9709C19.7651 24 20.5268 23.6837 21.0883 23.1206C21.6499 22.5575 21.9654 21.7938 21.9654 20.9974V14.9923C21.9652 14.3267 21.7446 13.6801 21.338 13.154C20.9315 12.6279 20.3622 12.2521 19.7196 12.0858L23.1233 8.66481C23.6846 8.10174 24 7.33816 24 6.54199C24 5.74581 23.6846 4.98223 23.1233 4.41916L19.5898 0.878116ZM11.9779 8.82495L15.132 11.9877H11.9779V8.82495ZM9.98155 11.9877H1.99631V4.98164C1.99631 4.7162 2.10147 4.46163 2.28866 4.27393C2.47585 4.08623 2.72974 3.98078 2.99447 3.98078H8.9834C9.24812 3.98078 9.50201 4.08623 9.6892 4.27393C9.87639 4.46163 9.98155 4.7162 9.98155 4.98164V11.9877ZM2.42352 21.8161C2.29277 21.7233 2.18624 21.6002 2.11293 21.4574C2.03961 21.3145 2.00166 21.1561 2.0023 20.9954V13.9894H9.98155V21.9963H2.99447C2.79025 21.9962 2.59098 21.9333 2.42352 21.8161ZM11.9779 21.9963V13.9894H18.9709C19.2357 13.9894 19.4895 14.0948 19.6767 14.2825C19.8639 14.4702 19.9691 14.7248 19.9691 14.9903V20.9954C19.9691 21.2609 19.8639 21.5154 19.6767 21.7031C19.4895 21.8908 19.2357 21.9963 18.9709 21.9963H11.9779Z" fill="white"/>
</svg>
